<svg width="400" height="88" viewBox="0 0 400 88" fill="none" xmlns="http://www.w3.org/2000/svg">
<path d="M89 48.9531V41.5733C89 39.0569 87.9659 36.6435 86.1251 34.8641C84.2844 33.0847 81.7878 32.0851 79.1845 32.0851H74.8221C73.9544 32.0851 73.1222 31.7518 72.5086 31.1587C71.895 30.5656 71.5503 29.7611 71.5503 28.9223V24.7053C71.5503 22.1889 70.5162 19.7755 68.6754 17.9961C66.8347 16.2167 64.3381 15.217 61.7349 15.217H56.2819M58.4631 55.2786V57.3871M67.1879 48.9531V57.3871M75.9127 42.6276V57.3871M50.7561 15.217H62.8255C69.7674 15.217 76.425 17.8828 81.3336 22.6278C86.2423 27.3729 89 33.8085 89 40.5191V66.8753C89 68.6212 87.5342 70.0381 85.7282 70.0381C71.2473 70.0381 69.7326 70.0381 58.0268 70.0381" stroke="white" stroke-width="4.36242" stroke-linecap="round" stroke-linejoin="round"/>
<path d="M38.4498 11.1471C36.5061 11.6168 34.9972 12.8777 34.3578 14.633C33.8719 15.8938 33.8208 18.7616 34.23 20.7641L34.4857 22.0991L32.363 24.1016C30.0868 26.2772 28.7569 28.3786 27.9641 31.0486C27.3247 33.1253 27.5549 38.4159 28.3477 41.2095C28.7825 42.6434 28.936 43.9043 28.9615 45.7832C28.9871 48.1812 28.936 48.5026 28.1943 49.986C27.7339 50.9254 26.7109 52.3346 25.7135 53.3977C24.7672 54.3618 24 55.3755 24 55.6474C24 56.3643 24.9974 57.4027 25.6879 57.4027C27.7339 57.4027 31.0331 53.7191 32.3374 49.986C33.0791 47.8351 33.0024 43.929 32.1072 40.3195C30.6239 34.2378 31.4423 30.1833 34.767 27.0436C36.2504 25.6344 36.1736 25.5355 39.4472 34.04C42.107 40.9129 44.0507 46.8215 47.1708 57.4027C50.7257 69.5167 52.5671 75.1781 53.1042 75.7467C53.897 76.6367 55.2014 75.9445 55.2014 74.6342C55.2014 73.7689 53.8715 65.9072 52.8996 60.9874C51.5697 54.2877 48.6542 37.2292 47.1453 27.4886C45.3806 15.9432 44.7924 13.8913 42.8231 12.2102C41.5188 11.0977 40.1122 10.7763 38.4498 11.1471ZM40.5214 16.586C40.9561 16.858 41.5699 17.5502 41.8513 18.1435C42.951 20.3438 43.309 26.7717 42.3628 27.3403C41.8257 27.6617 40.8283 26.8458 40.0866 25.4614C39.4472 24.25 39.4728 24.0522 40.2912 23.2364C40.905 22.6183 40.9561 22.4452 40.726 21.6294C40.5214 20.8136 40.3935 20.6899 39.6774 20.6158C38.6544 20.5169 38.3731 20.1955 38.3219 18.9594C38.2452 17.303 38.2964 16.9074 38.7311 16.5119C39.2426 15.9927 39.5495 16.0174 40.5214 16.586Z" fill="white"/>
<path d="M48.3984 19.7997C48.7053 22 48.9611 22.4203 50.4444 23.0136C52.2091 23.7058 53.8203 25.2386 54.7154 27.0928C55.3292 28.3536 55.4571 28.9222 55.4571 30.5786C55.4571 31.6664 55.3292 32.952 55.2014 33.4217C55.0479 33.8914 54.7666 35.1028 54.562 36.0917C54.2295 37.6492 54.2295 37.9706 54.5364 38.737C55.1758 40.1956 56.8126 40.1462 57.631 38.6381C58.1681 37.5998 59.2422 33.4464 59.4468 31.617C59.6258 29.7381 59.0887 27.0928 58.1425 25.2139C56.4545 21.9011 53.0531 19.4536 49.089 18.7366L48.2194 18.5883L48.3984 19.7997Z" fill="white"/>
<path d="M106.912 64V60.92C107.957 60.8827 108.76 60.7147 109.32 60.416C109.88 60.08 110.272 59.52 110.496 58.736C110.72 57.9147 110.832 56.7947 110.832 55.376V33.032C110.832 32.0987 110.851 31.2027 110.888 30.344C110.963 29.4853 111.019 28.8133 111.056 28.328C110.421 28.3653 109.693 28.4027 108.872 28.44C108.051 28.44 107.397 28.4587 106.912 28.496V24.8C109.376 24.7627 111.84 24.744 114.304 24.744C116.805 24.7067 119.288 24.688 121.752 24.688C125.149 24.688 128.024 25.08 130.376 25.864C132.765 26.648 134.557 27.88 135.752 29.56C136.984 31.2027 137.581 33.368 137.544 36.056C137.507 37.5867 137.152 39.08 136.48 40.536C135.808 41.992 134.744 43.28 133.288 44.4C131.832 45.52 129.891 46.3973 127.464 47.032C128.173 47.4053 128.845 47.9467 129.48 48.656C130.152 49.3653 130.768 50.1493 131.328 51.008L134.352 55.656C135.099 56.8133 135.789 57.784 136.424 58.568C137.059 59.3147 137.712 59.8933 138.384 60.304C139.056 60.6773 139.859 60.8827 140.792 60.92V64H132.28C131.496 63.3653 130.749 62.5813 130.04 61.648C129.368 60.7147 128.659 59.632 127.912 58.4L123.88 51.96C123.395 51.176 122.928 50.448 122.48 49.776C122.069 49.0667 121.603 48.4693 121.08 47.984C120.483 48.0213 119.941 48.04 119.456 48.04C118.971 48.04 118.448 48.0213 117.888 47.984V55.6C117.888 56.6453 117.869 57.5973 117.832 58.456C117.795 59.3147 117.739 59.9867 117.664 60.472C118.075 60.4347 118.56 60.416 119.12 60.416C119.717 60.3787 120.296 60.36 120.856 60.36C121.416 60.3227 121.864 60.304 122.2 60.304V64H106.912ZM120.8 44.624C122.891 44.5867 124.608 44.2693 125.952 43.672C127.333 43.0747 128.36 42.1413 129.032 40.872C129.741 39.6027 130.096 37.9787 130.096 36C130.096 34.32 129.835 32.9573 129.312 31.912C128.827 30.8667 128.155 30.064 127.296 29.504C126.475 28.944 125.56 28.5707 124.552 28.384C123.581 28.16 122.611 28.048 121.64 28.048C120.669 28.048 119.904 28.1973 119.344 28.496C118.784 28.7947 118.392 29.336 118.168 30.12C117.981 30.8667 117.888 31.8933 117.888 33.2V44.456C118.336 44.4933 118.803 44.5307 119.288 44.568C119.773 44.6053 120.277 44.624 120.8 44.624ZM159.776 64C159.664 63.44 159.589 62.9733 159.552 62.6C159.552 62.1893 159.533 61.7227 159.496 61.2C158.226 62.4693 156.864 63.4027 155.408 64C153.989 64.5973 152.514 64.896 150.984 64.896C148.445 64.896 146.485 64.2053 145.104 62.824C143.76 61.4427 143.088 59.744 143.088 57.728C143.088 55.936 143.573 54.424 144.544 53.192C145.514 51.9227 146.784 50.896 148.352 50.112C149.92 49.2907 151.656 48.6747 153.56 48.264C155.464 47.816 157.349 47.5733 159.216 47.536V44.456C159.216 43.3733 159.085 42.384 158.824 41.488C158.6 40.5547 158.17 39.8267 157.536 39.304C156.901 38.744 155.968 38.464 154.736 38.464C153.914 38.5013 153.074 38.688 152.216 39.024C151.394 39.3227 150.741 39.808 150.256 40.48C150.554 40.816 150.741 41.1893 150.816 41.6C150.89 41.9733 150.928 42.3093 150.928 42.608C150.928 43.28 150.666 43.9893 150.144 44.736C149.621 45.4453 148.781 45.7813 147.624 45.744C146.616 45.7067 145.832 45.352 145.272 44.68C144.749 44.008 144.488 43.2053 144.488 42.272C144.488 40.8533 144.992 39.6213 146 38.576C147.045 37.4933 148.445 36.6533 150.2 36.056C151.954 35.4213 153.914 35.104 156.08 35.104C159.29 35.104 161.754 35.944 163.472 37.624C165.189 39.304 166.029 41.992 165.992 45.688C165.992 46.9947 165.992 48.1893 165.992 49.272C165.992 50.3173 165.973 51.3813 165.936 52.464C165.936 53.5093 165.936 54.6853 165.936 55.992C165.936 56.552 165.917 57.2613 165.88 58.12C165.842 58.9413 165.786 59.7627 165.712 60.584C166.384 60.5093 167.056 60.472 167.728 60.472C168.437 60.4347 169.016 60.3973 169.464 60.36V64H159.776ZM159.16 50.84C158.04 50.9147 156.938 51.1013 155.856 51.4C154.773 51.6613 153.802 52.0347 152.944 52.52C152.085 53.0053 151.394 53.6213 150.872 54.368C150.386 55.0773 150.162 55.8987 150.2 56.832C150.237 57.9893 150.61 58.848 151.32 59.408C152.029 59.9307 152.85 60.192 153.784 60.192C154.866 60.192 155.837 59.968 156.696 59.52C157.592 59.072 158.413 58.4747 159.16 57.728C159.16 57.3547 159.16 56.9627 159.16 56.552C159.16 56.1413 159.16 55.7307 159.16 55.32C159.16 54.7973 159.16 54.144 159.16 53.36C159.16 52.576 159.16 51.736 159.16 50.84ZM183.553 64.896C182.508 64.896 181.481 64.7653 180.473 64.504C179.503 64.2427 178.607 63.7573 177.785 63.048C177.001 62.3387 176.367 61.2933 175.881 59.912C175.396 58.4933 175.153 56.6267 175.153 54.312L175.265 39.864L171.289 39.92V36C172.409 35.9627 173.492 35.5893 174.537 34.88C175.583 34.1333 176.497 33.1627 177.281 31.968C178.065 30.7733 178.588 29.504 178.849 28.16H182.265L182.209 36H190.105V39.584L182.209 39.752L182.153 54.144C182.153 55.264 182.247 56.3093 182.433 57.28C182.657 58.2133 183.031 58.96 183.553 59.52C184.113 60.08 184.86 60.36 185.793 60.36C186.503 60.36 187.305 60.136 188.201 59.688C189.135 59.24 190.068 58.344 191.001 57L193.297 59.072C192.364 60.4907 191.393 61.592 190.385 62.376C189.415 63.16 188.463 63.7387 187.529 64.112C186.633 64.4853 185.831 64.7093 185.121 64.784C184.412 64.8587 183.889 64.896 183.553 64.896ZM208.658 64.896C205.97 64.896 203.581 64.2987 201.49 63.104C199.399 61.872 197.775 60.1547 196.618 57.952C195.461 55.712 194.882 53.08 194.882 50.056C194.882 47.4427 195.461 44.9973 196.618 42.72C197.775 40.4427 199.399 38.6133 201.49 37.232C203.618 35.8133 206.082 35.104 208.882 35.104C210.45 35.104 211.962 35.328 213.418 35.776C214.874 36.224 216.181 36.9707 217.338 38.016C218.495 39.0613 219.41 40.4427 220.082 42.16C220.791 43.8773 221.127 45.968 221.09 48.432L202.274 48.768C202.274 51.0827 202.535 53.136 203.058 54.928C203.618 56.6827 204.514 58.0827 205.746 59.128C206.978 60.136 208.602 60.64 210.618 60.64C211.514 60.64 212.466 60.4907 213.474 60.192C214.519 59.856 215.546 59.3707 216.554 58.736C217.562 58.064 218.458 57.2427 219.242 56.272L221.37 58.232C220.138 60.024 218.775 61.4053 217.282 62.376C215.789 63.3467 214.295 64 212.802 64.336C211.309 64.7093 209.927 64.896 208.658 64.896ZM202.554 45.408H214.202C214.165 43.9147 213.941 42.664 213.53 41.656C213.157 40.6107 212.597 39.8267 211.85 39.304C211.103 38.744 210.189 38.464 209.106 38.464C207.277 38.464 205.802 39.08 204.682 40.312C203.599 41.5067 202.89 43.2053 202.554 45.408ZM248.093 37.12C247.832 35.1413 247.291 33.424 246.469 31.968C245.648 30.4747 244.547 29.336 243.165 28.552C241.821 27.7307 240.197 27.32 238.293 27.32C236.464 27.32 234.933 27.8427 233.701 28.888C232.507 29.9333 231.909 31.2213 231.909 32.752C231.909 34.0213 232.264 35.1227 232.973 36.056C233.72 36.9893 234.784 37.848 236.165 38.632C237.547 39.3787 239.189 40.1627 241.093 40.984C242.512 41.5813 243.949 42.2533 245.405 43C246.861 43.7093 248.205 44.568 249.437 45.576C250.669 46.584 251.659 47.76 252.405 49.104C253.189 50.4107 253.581 51.9787 253.581 53.808C253.581 55.9733 253.003 57.896 251.845 59.576C250.725 61.256 249.12 62.5627 247.029 63.496C244.939 64.4293 242.475 64.896 239.637 64.896C238.069 64.896 236.408 64.6533 234.653 64.168C232.899 63.72 231.293 63.0293 229.837 62.096L230.005 64.504H226.197L226.085 51.792H229.277C229.688 54.9653 230.864 57.3733 232.805 59.016C234.747 60.6213 237.08 61.424 239.805 61.424C241.187 61.424 242.419 61.1813 243.501 60.696C244.584 60.1733 245.424 59.4827 246.021 58.624C246.656 57.728 246.973 56.72 246.973 55.6C246.973 54.144 246.525 52.9493 245.629 52.016C244.733 51.0827 243.595 50.28 242.213 49.608C240.832 48.936 239.395 48.2827 237.901 47.648C236.221 46.9387 234.635 46.192 233.141 45.408C231.648 44.5867 230.323 43.672 229.165 42.664C228.045 41.6187 227.149 40.424 226.477 39.08C225.843 37.736 225.525 36.1493 225.525 34.32C225.525 33.2373 225.731 32.0987 226.141 30.904C226.552 29.672 227.224 28.5333 228.157 27.488C229.128 26.4427 230.416 25.584 232.021 24.912C233.627 24.24 235.624 23.904 238.013 23.904C239.507 23.904 241.131 24.128 242.885 24.576C244.677 24.9867 246.245 25.6773 247.589 26.648L247.365 24.296H251.229V37.12H248.093ZM275.027 61.032C276.11 61.032 276.875 60.808 277.323 60.36C277.771 59.8747 278.051 59.2027 278.163 58.344C278.275 57.4853 278.331 56.5147 278.331 55.432V47.48C278.294 44.792 277.864 42.7947 277.043 41.488C276.222 40.1813 274.934 39.528 273.179 39.528C272.096 39.528 271.014 39.7707 269.931 40.256C268.886 40.7413 268.027 41.3387 267.355 42.048V55.992C267.355 56.5893 267.336 57.3173 267.299 58.176C267.262 58.9973 267.187 59.8 267.075 60.584C267.71 60.5093 268.363 60.472 269.035 60.472C269.707 60.4347 270.267 60.416 270.715 60.416V64H257.107V61.032C258.19 61.032 258.955 60.808 259.403 60.36C259.888 59.8747 260.168 59.2027 260.243 58.344C260.355 57.4853 260.411 56.5147 260.411 55.432V31.24C260.411 30.6053 260.43 29.9147 260.467 29.168C260.504 28.384 260.56 27.5813 260.635 26.76C260 26.7973 259.31 26.8347 258.563 26.872C257.816 26.9093 257.2 26.9467 256.715 26.984V23.344C258.432 23.344 259.832 23.2693 260.915 23.12C261.998 22.9333 262.838 22.7093 263.435 22.448C264.07 22.1867 264.518 21.944 264.779 21.72H267.355V38.408C268.102 37.7733 268.96 37.2133 269.931 36.728C270.939 36.2427 271.966 35.8507 273.011 35.552C274.056 35.2533 275.008 35.104 275.867 35.104C279.227 35.104 281.616 36.0933 283.035 38.072C284.491 40.0507 285.219 43.2053 285.219 47.536L285.275 55.992C285.275 56.5893 285.256 57.3173 285.219 58.176C285.182 58.9973 285.126 59.8 285.051 60.584C285.648 60.5093 286.264 60.472 286.899 60.472C287.571 60.4347 288.15 60.416 288.635 60.416V64H275.027V61.032ZM305.674 64.896C302.986 64.896 300.596 64.2987 298.506 63.104C296.415 61.872 294.791 60.1547 293.633 57.952C292.476 55.712 291.898 53.08 291.898 50.056C291.898 47.4427 292.476 44.9973 293.633 42.72C294.791 40.4427 296.415 38.6133 298.506 37.232C300.634 35.8133 303.098 35.104 305.898 35.104C307.466 35.104 308.978 35.328 310.434 35.776C311.89 36.224 313.196 36.9707 314.354 38.016C315.511 39.0613 316.426 40.4427 317.098 42.16C317.807 43.8773 318.143 45.968 318.106 48.432L299.29 48.768C299.29 51.0827 299.551 53.136 300.074 54.928C300.634 56.6827 301.53 58.0827 302.762 59.128C303.994 60.136 305.618 60.64 307.634 60.64C308.53 60.64 309.482 60.4907 310.49 60.192C311.535 59.856 312.562 59.3707 313.57 58.736C314.578 58.064 315.474 57.2427 316.258 56.272L318.386 58.232C317.154 60.024 315.791 61.4053 314.298 62.376C312.804 63.3467 311.311 64 309.818 64.336C308.324 64.7093 306.943 64.896 305.674 64.896ZM299.57 45.408H311.218C311.18 43.9147 310.956 42.664 310.546 41.656C310.172 40.6107 309.612 39.8267 308.866 39.304C308.119 38.744 307.204 38.464 306.122 38.464C304.292 38.464 302.818 39.08 301.698 40.312C300.615 41.5067 299.906 43.2053 299.57 45.408ZM335.752 64.896C333.064 64.896 330.674 64.2987 328.584 63.104C326.493 61.872 324.869 60.1547 323.712 57.952C322.554 55.712 321.976 53.08 321.976 50.056C321.976 47.4427 322.554 44.9973 323.712 42.72C324.869 40.4427 326.493 38.6133 328.584 37.232C330.712 35.8133 333.176 35.104 335.976 35.104C337.544 35.104 339.056 35.328 340.512 35.776C341.968 36.224 343.274 36.9707 344.432 38.016C345.589 39.0613 346.504 40.4427 347.176 42.16C347.885 43.8773 348.221 45.968 348.184 48.432L329.368 48.768C329.368 51.0827 329.629 53.136 330.152 54.928C330.712 56.6827 331.608 58.0827 332.84 59.128C334.072 60.136 335.696 60.64 337.712 60.64C338.608 60.64 339.56 60.4907 340.568 60.192C341.613 59.856 342.64 59.3707 343.648 58.736C344.656 58.064 345.552 57.2427 346.336 56.272L348.464 58.232C347.232 60.024 345.869 61.4053 344.376 62.376C342.882 63.3467 341.389 64 339.896 64.336C338.402 64.7093 337.021 64.896 335.752 64.896ZM329.648 45.408H341.296C341.258 43.9147 341.034 42.664 340.624 41.656C340.25 40.6107 339.69 39.8267 338.944 39.304C338.197 38.744 337.282 38.464 336.2 38.464C334.37 38.464 332.896 39.08 331.776 40.312C330.693 41.5067 329.984 43.2053 329.648 45.408ZM363.366 64.896C362.32 64.896 361.294 64.7653 360.286 64.504C359.315 64.2427 358.419 63.7573 357.598 63.048C356.814 62.3387 356.179 61.2933 355.694 59.912C355.208 58.4933 354.966 56.6267 354.966 54.312L355.078 39.864L351.102 39.92V36C352.222 35.9627 353.304 35.5893 354.35 34.88C355.395 34.1333 356.31 33.1627 357.094 31.968C357.878 30.7733 358.4 29.504 358.662 28.16H362.078L362.022 36H369.918V39.584L362.022 39.752L361.966 54.144C361.966 55.264 362.059 56.3093 362.246 57.28C362.47 58.2133 362.843 58.96 363.366 59.52C363.926 60.08 364.672 60.36 365.606 60.36C366.315 60.36 367.118 60.136 368.014 59.688C368.947 59.24 369.88 58.344 370.814 57L373.11 59.072C372.176 60.4907 371.206 61.592 370.198 62.376C369.227 63.16 368.275 63.7387 367.342 64.112C366.446 64.4853 365.643 64.7093 364.934 64.784C364.224 64.8587 363.702 64.896 363.366 64.896Z" fill="white"/>
</svg>
